<svg xmlns="http://www.w3.org/2000/svg" xmlns:xlink="http://www.w3.org/1999/xlink" id="Layer_1" x="0" y="0" version="1.1" viewBox="0 0 60 60" style="enable-background:new 0 0 60 60" xml:space="preserve"><style type="text/css">.st0{fill:url(#SVGID_1_)}.st1{fill:url(#SVGID_2_)}.st2{fill:#a0a8d4}.st3{fill:url(#SVGID_3_)}.st4{fill:url(#SVGID_4_)}</style><linearGradient id="SVGID_1_" x1="3.623" x2="54.383" y1="64.421" y2="-1.819" gradientUnits="userSpaceOnUse"><stop offset="0" style="stop-color:#005baa"/><stop offset="1" style="stop-color:#0f002a"/></linearGradient><path d="M47.5,60h-35C5.6,60,0,54.4,0,47.5v-35C0,5.6,5.6,0,12.5,0h35C54.4,0,60,5.6,60,12.5v35	C60,54.4,54.4,60,47.5,60z" class="st0"/><g><g><linearGradient id="SVGID_2_" x1="35.881" x2="22.729" y1="744.9" y2="759.158" gradientTransform="matrix(1 0 0 1 -6 -732.59)" gradientUnits="userSpaceOnUse"><stop offset=".58" style="stop-color:#a0a8d4"/><stop offset=".73" style="stop-color:#8791c7"/><stop offset=".91" style="stop-color:#6470b4"/></linearGradient><path d="M17.9,26.6c0.4,0.7,1.3,2.3,1.3,2.3l10.2-16.9l-10,7c-0.6,0.4-1.1,0.9-1.4,1.5C17,22.4,17,24.6,17.9,26.6z" class="st1"/><path d="M13.9,32.1c0.3,3.3,1.9,6.3,4.4,8.2l11.1,7.8c0,0-6.9-10-12.8-19.9c-0.6-1.1-1-2.2-1.2-3.4 c-0.1-0.5-0.1-1.1,0-1.6C15.2,23.5,15,24,15,24c-0.6,1.2-1,2.5-1.2,3.8C13.7,29.3,13.7,30.7,13.9,32.1z" class="st2"/><linearGradient id="SVGID_3_" x1="36.169" x2="49.323" y1="780.32" y2="766.064" gradientTransform="matrix(1 0 0 1 -6 -732.59)" gradientUnits="userSpaceOnUse"><stop offset=".58" style="stop-color:#a0a8d4"/><stop offset=".73" style="stop-color:#8791c7"/><stop offset=".91" style="stop-color:#6470b4"/></linearGradient><path d="M42.1,33.4c-0.4-0.7-1.2-2.3-1.2-2.3L30.6,48.1l10-7c0.6-0.4,1.1-0.9,1.4-1.5C43,37.6,43,35.4,42.1,33.4z" class="st3"/><path d="M46.1,27.9c-0.3-3.3-1.9-6.3-4.4-8.2l-11.1-7.8c0,0,6.9,10,12.8,19.9c0.6,1.1,1,2.2,1.2,3.4 c0.1,0.5,0.1,1.1,0,1.6C44.8,36.5,45,36,45,36c0.6-1.2,1-2.5,1.2-3.8C46.3,30.7,46.3,29.3,46.1,27.9z" class="st2"/><linearGradient id="SVGID_4_" x1="36" x2="36" y1="744.29" y2="780.822" gradientTransform="matrix(1 0 0 1 -6 -732.59)" gradientUnits="userSpaceOnUse"><stop offset="0" style="stop-color:#513eff"/><stop offset=".18" style="stop-color:#5157ff"/><stop offset=".57" style="stop-color:#5298ff"/><stop offset="1" style="stop-color:#52e5ff"/></linearGradient><path d="M17.9,20.4c0.4-0.6,0.8-1.2,1.4-1.5l10-7L19.1,28.8c0,0-0.9-1.5-1.3-2.3C17,24.6,17,22.4,17.9,20.4z M13.9,32.1c0.3,3.3,1.9,6.3,4.4,8.2l11.1,7.8c0,0-6.9-10-12.8-19.9c-0.6-1.1-1-2.2-1.2-3.4c-0.1-0.5-0.1-1.1,0-1.6 C15.2,23.5,15,24,15,24c-0.6,1.2-1,2.5-1.2,3.8C13.7,29.3,13.7,30.7,13.9,32.1z M42.1,33.4c-0.4-0.7-1.3-2.3-1.3-2.3L30.6,48.1 l10-7c0.6-0.4,1.1-0.9,1.4-1.5C43,37.6,43,35.4,42.1,33.4L42.1,33.4z M46.1,27.9c-0.3-3.3-1.9-6.3-4.4-8.2l-11.1-7.8 c0,0,6.9,10,12.8,19.9c0.6,1.1,1,2.2,1.2,3.4c0.1,0.5,0.1,1.1,0,1.6C44.8,36.5,45,36,45,36c0.6-1.2,1-2.5,1.2-3.8 C46.3,30.7,46.3,29.3,46.1,27.9L46.1,27.9z" class="st4"/></g></g></svg>