<svg xmlns="http://www.w3.org/2000/svg" xmlns:xlink="http://www.w3.org/1999/xlink" id="Layer_1" x="0" y="0" version="1.1" viewBox="0 0 36 24" style="enable-background:new 0 0 36 24" xml:space="preserve"><style type="text/css">.st0{fill:gray}.st1{fill:#fff}</style><path d="M0,6.4C0,4.2,0,3,0.4,2.2c0.4-0.8,1-1.4,1.7-1.7C3,0,4.2,0,6.4,0h23.2c2.2,0,3.4,0,4.2,0.4	c0.8,0.4,1.4,1,1.7,1.7C36,3,36,4.2,36,6.4v11.2c0,2.2,0,3.4-0.4,4.2c-0.4,0.8-1,1.4-1.7,1.7C33,24,31.8,24,29.6,24H6.4	c-2.2,0-3.4,0-4.2-0.4c-0.8-0.4-1.4-1-1.7-1.7C0,21,0,19.8,0,17.6V6.4z" class="st0"/><g><path d="M10.5,10h15c0.3,0,0.6-0.2,0.7-0.4c0.1-0.2,0-0.5-0.2-0.7l-7.5-4.8C18.4,4,18.2,4,18,4c-0.2,0-0.4,0.1-0.5,0.1 L10,8.9C9.7,9.1,9.7,9.4,9.8,9.6C9.9,9.8,10.2,10,10.5,10z" class="st1"/><path d="M25.5,17.7h-15c-0.4,0-0.8,0.3-0.8,0.6v0.9c0,0.3,0.4,0.6,0.8,0.6h15c0.4,0,0.8-0.3,0.8-0.6v-0.9 C26.3,18,25.9,17.7,25.5,17.7z" class="st1"/><path d="M12.4,10.8c-0.1,0-0.1,0.1-0.1,0.2v5.8c0,0.1,0.1,0.2,0.1,0.2H14c0.1,0,0.1-0.1,0.1-0.2v-5.8 c0-0.1-0.1-0.2-0.1-0.2H12.4z" class="st1"/><path d="M17.2,10.8c-0.1,0-0.1,0.1-0.1,0.2v5.8c0,0.1,0.1,0.2,0.1,0.2h1.6c0.1,0,0.1-0.1,0.1-0.2v-5.8 c0-0.1-0.1-0.2-0.1-0.2H17.2z" class="st1"/><path d="M22,10.8c-0.1,0-0.1,0.1-0.1,0.2v5.8c0,0.1,0.1,0.2,0.1,0.2h1.6c0.1,0,0.1-0.1,0.1-0.2v-5.8 c0-0.1-0.1-0.2-0.1-0.2H22z" class="st1"/></g></svg>