<svg xmlns="http://www.w3.org/2000/svg" xmlns:xlink="http://www.w3.org/1999/xlink" id="Layer_1" x="0" y="0" version="1.1" viewBox="0 0 300 300" style="enable-background:new 0 0 300 300" xml:space="preserve"><style type="text/css">.st0{fill:url(#SVGID_1_)}.st1{fill:url(#SVGID_2_)}.st2{fill:url(#SVGID_3_)}.st3{fill:url(#SVGID_4_)}.st4{fill:url(#SVGID_5_)}.st5{fill:url(#SVGID_6_)}.st6{fill:url(#SVGID_7_)}.st7{fill:url(#SVGID_8_)}.st8{fill:url(#SVGID_9_)}.st9{fill:url(#SVGID_10_)}.st10{fill:url(#SVGID_11_)}.st11{fill:url(#SVGID_12_)}</style><linearGradient id="SVGID_1_" x1="18.705" x2="94.389" y1="440.061" y2="440.061" gradientTransform="matrix(3.1601 0 0 -3.1601 -28.6057 1478.9275)" gradientUnits="userSpaceOnUse"><stop offset="0" style="stop-color:#64c4aa"/><stop offset=".5" style="stop-color:#e6e6e6"/><stop offset="1" style="stop-color:#e3e3e3"/></linearGradient><path d="M259.9,150.8l0.3-0.1l0-51.3l0-4c-0.6-5.4-3.4-10.3-7.8-13.4l-3.2-1.8l-88.4-51.1l-2.7-1.6	c-1.8-0.8-3.6-1.4-5.6-1.7l57.5,96.1L259.9,150.8z" class="st0"/><linearGradient id="SVGID_2_" x1="18.704" x2="94.389" y1="406.091" y2="406.091" gradientTransform="matrix(3.1601 0 0 -3.1601 -28.6057 1478.9275)" gradientUnits="userSpaceOnUse"><stop offset="0" style="stop-color:#64c4aa"/><stop offset=".5" style="stop-color:#e6e6e6"/><stop offset="1" style="stop-color:#b2b2b2"/></linearGradient><path d="M218.4,176l-39.3,22.6c1.6,0.9,6.3,3.7,6.6,3.9l1,0.6c2.7,2.3,4.3,5.6,4.5,9.2h0c0.1,1,0,2-0.1,3L218.4,176z" class="st1"/><linearGradient id="SVGID_3_" x1="18.705" x2="94.389" y1="391.256" y2="391.256" gradientTransform="matrix(3.1601 0 0 -3.1601 -28.6057 1478.9275)" gradientUnits="userSpaceOnUse"><stop offset="0" style="stop-color:#d9d9d9"/><stop offset=".5" style="stop-color:#cfcfcf"/><stop offset="1" style="stop-color:#b8b8b8"/></linearGradient><path d="M171.2,225l-19-10.9v57l32-45.9C180.3,227.2,175.3,227.4,171.2,225z" class="st2"/><linearGradient id="SVGID_4_" x1="18.705" x2="94.389" y1="441.663" y2="441.663" gradientTransform="matrix(3.1601 0 0 -3.1601 -28.6057 1478.9275)" gradientUnits="userSpaceOnUse"><stop offset="0" style="stop-color:#fff"/><stop offset=".5" style="stop-color:#dfdfdf"/><stop offset="1" style="stop-color:silver"/></linearGradient><path d="M109.3,89.9c-0.8-3.3-0.3-6.8,1.4-9.7c1.8-3.1,4.7-5.3,8.2-6.2l28.6-48.1c-2.1,0.3-4.2,0.9-6,1.8l-2.4,1.4	l-0.5,0.3l-90,51.9l-14.4-8.3V115l44.6,25.7L109.3,89.9z" class="st3"/><linearGradient id="SVGID_5_" x1="18.704" x2="94.389" y1="419.45" y2="419.45" gradientTransform="matrix(3.1601 0 0 -3.1601 -28.6057 1478.9275)" gradientUnits="userSpaceOnUse"><stop offset="0" style="stop-color:#e4e4e4"/><stop offset=".5" style="stop-color:#d8d8d8"/><stop offset="1" style="stop-color:#a8a8a8"/></linearGradient><path d="M213.5,154.9l-61.3-35.4v63.6l7.3,4.2L213.5,154.9z" class="st4"/><linearGradient id="SVGID_6_" x1="18.704" x2="94.39" y1="449.687" y2="449.687" gradientTransform="matrix(3.1601 0 0 -3.1601 -28.6057 1478.9275)" gradientUnits="userSpaceOnUse"><stop offset="0" style="stop-color:#f0f0f0"/><stop offset=".5" style="stop-color:#d2d2d2"/><stop offset="1" style="stop-color:#adadad"/></linearGradient><path d="M129,75.2l18.8,10.8V29.7l-26.2,43.8C124.2,73.3,126.7,73.9,129,75.2z" class="st5"/><linearGradient id="SVGID_7_" x1="18.704" x2="94.389" y1="444.348" y2="444.348" gradientTransform="matrix(3.1601 0 0 -3.1601 -28.6057 1478.9275)" gradientUnits="userSpaceOnUse"><stop offset="0" style="stop-color:#ddd"/><stop offset=".5" style="stop-color:#e3dfdf"/><stop offset="1" style="stop-color:#b7b7b7"/></linearGradient><path d="M152.2,29.9v58.7l53.7,31L152.2,29.9z" class="st6"/><linearGradient id="SVGID_8_" x1="18.704" x2="94.389" y1="430.638" y2="430.638" gradientTransform="matrix(3.1601 0 0 -3.1601 -28.6057 1478.9275)" gradientUnits="userSpaceOnUse"><stop offset="0" style="stop-color:#f0f0f0"/><stop offset=".5" style="stop-color:#cdd2d7"/><stop offset="1" style="stop-color:#adadad"/></linearGradient><path d="M110.2,92.4l-29.6,49.4l3.3,1.9l63.8-26.2V117l-32.1-18.6C113.1,97,111.3,94.9,110.2,92.4L110.2,92.4z" class="st7"/><linearGradient id="SVGID_9_" x1="18.705" x2="94.388" y1="420.46" y2="420.46" gradientTransform="matrix(3.1601 0 0 -3.1601 -28.6057 1478.9275)" gradientUnits="userSpaceOnUse"><stop offset="0" style="stop-color:#c6c6c6"/><stop offset=".5" style="stop-color:#c9c9c9"/><stop offset="1" style="stop-color:#b0b0b0"/></linearGradient><path d="M147.8,180.5V120l-61.3,25.2L147.8,180.5z" class="st8"/><linearGradient id="SVGID_10_" x1="18.705" x2="94.388" y1="400.996" y2="400.996" gradientTransform="matrix(3.1601 0 0 -3.1601 -28.6057 1478.9275)" gradientUnits="userSpaceOnUse"><stop offset="0" style="stop-color:#fff"/><stop offset=".5" style="stop-color:#e7e7e7"/><stop offset="1" style="stop-color:#bdbdbd"/></linearGradient><path d="M40.2,149.3l-0.2,0.1l-0.1,0l0,52.4c0,0.2,0,0.5,0,0.7c0,0.2,0,0.5,0,0.7c0.2,6.2,3.4,11.8,8.6,15.2l1.7,1	l88.7,51.2l0.3,0.2c2.4,1.8,5.3,2.9,8.3,3.3l-72.8-105L40.2,149.3z" class="st9"/><linearGradient id="SVGID_11_" x1="18.704" x2="94.388" y1="399.911" y2="399.911" gradientTransform="matrix(3.1601 0 0 -3.1601 -28.6057 1478.9275)" gradientUnits="userSpaceOnUse"><stop offset="0" style="stop-color:#64c4aa"/><stop offset=".5" style="stop-color:#e0e0e0"/><stop offset="1" style="stop-color:#dedede"/></linearGradient><path d="M161.7,188.6l15.2,8.8l49-28.3l-57.3,82.3l-15.9,22.8c2.3-0.3,4.4-1,6.3-2.1l0.3-0.2l2.3-1.3l89.8-51.8	l14.4,8.3v-42l-50.1-29L161.7,188.6z" class="st10"/><linearGradient id="SVGID_12_" x1="18.704" x2="94.389" y1="397.981" y2="397.981" gradientTransform="matrix(3.1601 0 0 -3.1601 -28.6057 1478.9275)" gradientUnits="userSpaceOnUse"><stop offset="0" style="stop-color:#f0f0f0"/><stop offset=".5" style="stop-color:#cfcfcf"/><stop offset="1" style="stop-color:#b3b3b3"/></linearGradient><path d="M147.8,270.8v-59.4L79,171.7L147.8,270.8z" class="st11"/></svg>