<svg xmlns="http://www.w3.org/2000/svg" xmlns:xlink="http://www.w3.org/1999/xlink" id="Layer_1" x="0" y="0" version="1.1" viewBox="0 0 73 73" style="enable-background:new 0 0 73 73" xml:space="preserve"><style type="text/css">.st0{fill:url(#SVGID_1_)}.st1{fill:url(#SVGID_2_)}.st2{fill:url(#SVGID_3_)}.st3{fill:url(#SVGID_4_)}.st4{fill:url(#SVGID_5_)}.st5{fill:url(#SVGID_6_)}.st6{fill:url(#SVGID_7_)}.st7{fill:url(#SVGID_8_)}.st8{fill:url(#SVGID_9_)}.st9{fill:url(#SVGID_10_)}.st10{fill:url(#SVGID_11_)}</style><linearGradient id="SVGID_1_" x1="23.348" x2="22.464" y1="75.657" y2="-.341" gradientTransform="matrix(1 0 0 -1 0 74)" gradientUnits="userSpaceOnUse"><stop offset=".198" style="stop-color:#2cd7be"/><stop offset=".651" style="stop-color:#2878db"/><stop offset="1" style="stop-color:#2400ff"/></linearGradient><path d="M12.3,32.9c0,0.5,0.4,0.9,0.9,0.9h19.7c0.5,0,0.9-0.4,0.9-0.9V13.2c0-0.5-0.4-0.9-0.9-0.9H13.2	c-0.5,0-0.9,0.4-0.9,0.9V32.9z M17.7,18.6c0-0.5,0.4-0.9,0.9-0.9h9c0.5,0,0.9,0.4,0.9,0.9v9c0,0.5-0.4,0.9-0.9,0.9h-9	c-0.5,0-0.9-0.4-0.9-0.9V18.6z" class="st0"/><linearGradient id="SVGID_2_" x1="23.66" x2="22.776" y1="75.654" y2="-.345" gradientTransform="matrix(1 0 0 -1 0 74)" gradientUnits="userSpaceOnUse"><stop offset=".198" style="stop-color:#2cd7be"/><stop offset=".651" style="stop-color:#2878db"/><stop offset="1" style="stop-color:#2400ff"/></linearGradient><path d="M12.3,59.8c0,0.5,0.4,0.9,0.9,0.9h19.7c0.5,0,0.9-0.4,0.9-0.9V40.1c0-0.5-0.4-0.9-0.9-0.9H13.2	c-0.5,0-0.9,0.4-0.9,0.9V59.8z M17.7,45.4c0-0.5,0.4-0.9,0.9-0.9h9c0.5,0,0.9,0.4,0.9,0.9v9c0,0.5-0.4,0.9-0.9,0.9h-9	c-0.5,0-0.9-0.4-0.9-0.9V45.4z" class="st1"/><linearGradient id="SVGID_3_" x1="50.224" x2="49.34" y1="75.345" y2="-.654" gradientTransform="matrix(1 0 0 -1 0 74)" gradientUnits="userSpaceOnUse"><stop offset=".198" style="stop-color:#2cd7be"/><stop offset=".651" style="stop-color:#2878db"/><stop offset="1" style="stop-color:#2400ff"/></linearGradient><path d="M40.1,12.3c-0.5,0-0.9,0.4-0.9,0.9v19.7c0,0.5,0.4,0.9,0.9,0.9h19.7c0.5,0,0.9-0.4,0.9-0.9V13.2	c0-0.5-0.4-0.9-0.9-0.9H40.1z M55.3,27.6c0,0.5-0.4,0.9-0.9,0.9h-9c-0.5,0-0.9-0.4-0.9-0.9v-9c0-0.5,0.4-0.9,0.9-0.9h9	c0.5,0,0.9,0.4,0.9,0.9V27.6z" class="st2"/><linearGradient id="SVGID_4_" x1="58.693" x2="57.809" y1="75.246" y2="-.752" gradientTransform="matrix(1 0 0 -1 0 74)" gradientUnits="userSpaceOnUse"><stop offset=".198" style="stop-color:#2cd7be"/><stop offset=".651" style="stop-color:#2878db"/><stop offset="1" style="stop-color:#2400ff"/></linearGradient><path d="M59.8,55.3h-3.6c-0.5,0-0.9,0.4-0.9,0.9v3.6c0,0.5,0.4,0.9,0.9,0.9h3.6c0.5,0,0.9-0.4,0.9-0.9v-3.6	C60.7,55.7,60.3,55.3,59.8,55.3z" class="st3"/><linearGradient id="SVGID_5_" x1="42.38" x2="41.496" y1="75.436" y2="-.563" gradientTransform="matrix(1 0 0 -1 0 74)" gradientUnits="userSpaceOnUse"><stop offset=".198" style="stop-color:#2cd7be"/><stop offset=".651" style="stop-color:#2878db"/><stop offset="1" style="stop-color:#2400ff"/></linearGradient><path d="M43.7,39.2h-3.6c-0.5,0-0.9,0.4-0.9,0.9v3.6c0,0.5,0.4,0.9,0.9,0.9h3.6c0.5,0,0.9-0.4,0.9-0.9v-3.6	C44.6,39.6,44.2,39.2,43.7,39.2z" class="st4"/><linearGradient id="SVGID_6_" x1="47.817" x2="46.934" y1="75.373" y2="-.626" gradientTransform="matrix(1 0 0 -1 0 74)" gradientUnits="userSpaceOnUse"><stop offset=".198" style="stop-color:#2cd7be"/><stop offset=".651" style="stop-color:#2878db"/><stop offset="1" style="stop-color:#2400ff"/></linearGradient><path d="M49.1,44.6h-3.6c-0.5,0-0.9,0.4-0.9,0.9v3.6c0,0.5,0.4,0.9,0.9,0.9h3.6c0.5,0,0.9-0.4,0.9-0.9v-3.6	C49.9,45,49.5,44.6,49.1,44.6z" class="st5"/><linearGradient id="SVGID_7_" x1="42.505" x2="41.621" y1="75.435" y2="-.564" gradientTransform="matrix(1 0 0 -1 0 74)" gradientUnits="userSpaceOnUse"><stop offset=".198" style="stop-color:#2cd7be"/><stop offset=".651" style="stop-color:#2878db"/><stop offset="1" style="stop-color:#2400ff"/></linearGradient><path d="M43.7,49.9h-3.6c-0.5,0-0.9,0.4-0.9,0.9v3.6c0,0.5,0.4,0.9,0.9,0.9h3.6c0.5,0,0.9-0.4,0.9-0.9v-3.6	C44.6,50.3,44.2,49.9,43.7,49.9z" class="st6"/><linearGradient id="SVGID_8_" x1="47.942" x2="47.059" y1="75.371" y2="-.627" gradientTransform="matrix(1 0 0 -1 0 74)" gradientUnits="userSpaceOnUse"><stop offset=".198" style="stop-color:#2cd7be"/><stop offset=".651" style="stop-color:#2878db"/><stop offset="1" style="stop-color:#2400ff"/></linearGradient><path d="M49.1,55.3h-3.6c-0.5,0-0.9,0.4-0.9,0.9v3.6c0,0.5,0.4,0.9,0.9,0.9h3.6c0.5,0,0.9-0.4,0.9-0.9v-3.6	C49.9,55.7,49.5,55.3,49.1,55.3z" class="st7"/><linearGradient id="SVGID_9_" x1="53.255" x2="52.371" y1="75.31" y2="-.689" gradientTransform="matrix(1 0 0 -1 0 74)" gradientUnits="userSpaceOnUse"><stop offset=".198" style="stop-color:#2cd7be"/><stop offset=".651" style="stop-color:#2878db"/><stop offset="1" style="stop-color:#2400ff"/></linearGradient><path d="M54.4,49.9h-3.6c-0.5,0-0.9,0.4-0.9,0.9v3.6c0,0.5,0.4,0.9,0.9,0.9h3.6c0.5,0,0.9-0.4,0.9-0.9v-3.6	C55.3,50.3,54.9,49.9,54.4,49.9z" class="st8"/><linearGradient id="SVGID_10_" x1="53.13" x2="52.246" y1="75.311" y2="-.688" gradientTransform="matrix(1 0 0 -1 0 74)" gradientUnits="userSpaceOnUse"><stop offset=".198" style="stop-color:#2cd7be"/><stop offset=".651" style="stop-color:#2878db"/><stop offset="1" style="stop-color:#2400ff"/></linearGradient><path d="M54.4,39.2h-3.6c-0.5,0-0.9,0.4-0.9,0.9v3.6c0,0.5,0.4,0.9,0.9,0.9h3.6c0.5,0,0.9-0.4,0.9-0.9v-3.6	C55.3,39.6,54.9,39.2,54.4,39.2z" class="st9"/><linearGradient id="SVGID_11_" x1="58.568" x2="57.684" y1="75.248" y2="-.751" gradientTransform="matrix(1 0 0 -1 0 74)" gradientUnits="userSpaceOnUse"><stop offset=".198" style="stop-color:#2cd7be"/><stop offset=".651" style="stop-color:#2878db"/><stop offset="1" style="stop-color:#2400ff"/></linearGradient><path d="M59.8,44.6h-3.6c-0.5,0-0.9,0.4-0.9,0.9v3.6c0,0.5,0.4,0.9,0.9,0.9h3.6c0.5,0,0.9-0.4,0.9-0.9v-3.6	C60.7,45,60.3,44.6,59.8,44.6z" class="st10"/></svg>