<svg xmlns="http://www.w3.org/2000/svg" xmlns:svg="http://www.w3.org/2000/svg" id="Capa_1" x="0" y="0" version="1.1" viewBox="0 0 512 512" style="enable-background:new 0 0 512 512" xml:space="preserve"><g id="g149" transform="rotate(180,256,256)"><g id="g147"><path id="path145" d="m 464.867,96.4 h -81.4 V 15 c 0,-8.284 -6.716,-15 -15,-15 H 47.133 c -8.284,0 -15,6.716 -15,15 v 385.601 c 0,8.284 6.716,15 15,15 h 81.4 V 497 c 0,8.284 6.716,15 15,15 h 321.334 c 8.284,0 15,-6.716 15,-15 V 111.4 c 0,-8.284 -6.716,-15 -15,-15 z M 62.133,385.601 V 30 h 291.334 v 81.149 c -0.002,0.084 -0.013,0.166 -0.013,0.251 0,0.085 0.011,0.167 0.013,0.252 V 385.601 Z M 449.867,482 H 158.533 v -66.399 h 209.934 c 8.284,0 15,-6.716 15,-15 V 126.4 h 66.4 V 482 Z" style="stroke-width:0;stroke-dasharray:none;fill:#05c0a5;fill-opacity:1"/></g></g></svg>