<svg xmlns="http://www.w3.org/2000/svg" xmlns:xlink="http://www.w3.org/1999/xlink" id="Layer_1" x="0" y="0" version="1.1" viewBox="0 0 167 167" style="enable-background:new 0 0 167 167" xml:space="preserve"><style type="text/css">.st0{fill:#6e7ebe}</style><path d="M86.8,39.1V24.6H5.5v115.8h55.7v-15.6H20V92.5h21.2V71.4H20V39.1H86.8z M26.7,78h8.9V87h-8.9V78z" class="st0"/><rect width="34.5" height="14.5" x="46.2" y="75.3" class="st0"/><rect width="6.3" height="6.3" x="43" y="94.4" class="st0" transform="matrix(0.7071 -0.7071 0.7071 0.7071 -55.4504 61.2057)"/><rect width="6.3" height="6.3" x="50.8" y="102.2" class="st0" transform="matrix(0.7071 -0.7071 0.7071 0.7071 -58.6801 69.0028)"/><rect width="6.3" height="6.3" x="58.6" y="110" class="st0" transform="matrix(0.7071 -0.7071 0.7071 0.7071 -61.9098 76.8)"/><path d="M66.2,118.7v21.2h21.2v-21.2H66.2z M81.8,134.3h-10v-10h10V134.3z" class="st0"/><polygon points="88.5 102 119.7 102 119.7 110.9 108.5 110.9 108.5 139.9 99.6 139.9 99.6 110.9 88.5 110.9" class="st0"/><polygon points="88.5 102.6 119.7 102.6 119.7 110.9 108.5 110.9 108.5 139.9 98.5 139.9 98.5 110.9 88.5 110.9" class="st0"/><polygon points="129.7 103.1 138.6 103.1 138.6 116.5 153.1 116.5 153.1 103.1 162 103.1 162 139.9 153.1 139.9 153.1 125.4 138.6 125.4 138.6 139.9 129.7 139.9" class="st0"/></svg>