<svg xmlns="http://www.w3.org/2000/svg" xmlns:xlink="http://www.w3.org/1999/xlink" id="Layer_1" x="0" y="0" version="1.1" viewBox="0 0 48 46" style="enable-background:new 0 0 48 46" xml:space="preserve"><style type="text/css">.st0{stroke:#fff;stroke-width:.8;stroke-miterlimit:10}.st0,.st1{fill:#fff}</style><path d="M15.5,23.5c-0.6-2-2-6.6-2-6.7l-1.4,0.9v11.8l1.4,0.9v-8.1l2.6,9.7l1.2,0.8V14.4l-1.7,1L15.5,23.5z" class="st0"/><polygon points="24 12.7 28.1 15.2 29.1 13.6 24 10.7 20 13.1 20 33.2 21.6 34.3 21.6 24.2 27.7 24.2 27.7 22.1 21.6 22.1 21.6 14.1" class="st0"/><polygon points="30.1 15.5 32.3 17 32.3 31.8 34.2 30.8 34.2 18 36.4 19.6 36.4 17.7 31 14.2" class="st0"/><path d="M24,2.4L6.1,12.8v20.6L24,43.7l17.9-10.3V12.8L24,2.4z M9.6,14.8L24,6.5l14.4,8.3v16.7L24,39.9L9.6,31.4V14.8z" class="st1"/></svg>