<svg xmlns="http://www.w3.org/2000/svg" xmlns:xlink="http://www.w3.org/1999/xlink" width="38" height="38" version="1.1" viewBox="0 0 38 38"><title>Group 75</title><desc>Created with Sketch.</desc><defs><polygon id="path-1" points=".041 .033 7.963 .033 7.963 5.983 .041 5.983"/></defs><g id="Landing-page" fill="none" fill-rule="evenodd" stroke="none" stroke-width="1"><g id="how-it-works" transform="translate(-214.000000, -745.000000)"><g id="Group-74" transform="translate(214.000000, 507.000000)"><g id="Group-69" transform="translate(0.000000, 12.000000)"><g id="Group-49" transform="translate(0.000000, 214.000000)"><g id="Group-75" transform="translate(0.000000, 12.000000)"><g id="NTF" transform="translate(0.000000, 1.000000)"><circle id="Oval" cx="18.856" cy="18" r="18" stroke="#00C0A5"/><g id="Group-14" transform="translate(8.000000, 10.000000)"><path id="Fill-1" fill="#00C0A5" d="M12,15.5 C12,16.3284867 11.3284141,17 10.5000468,17 C9.67158591,17 9,16.3284867 9,15.5 C9,14.6715133 9.67158591,14 10.5000468,14 C11.3284141,14 12,14.6715133 12,15.5"/><g id="Group-5" transform="translate(13.000000, 3.000000)"><mask id="mask-2" fill="#fff"><use xlink:href="#path-1"/></mask><path id="Fill-3" fill="#00C0A5" d="M5.90411579,5.98275254 L7.96327368,3.99339661 C5.74158947,1.84712542 2.98874737,0.527532203 0.113589474,0.0327864407 L0.0406421053,2.8855322 C2.18937895,3.33665085 4.23369474,4.36895593 5.90411579,5.98275254" mask="url(#mask-2)"/></g><path id="Fill-6" fill="#00C0A5" d="M0,6.99401822 L2.08037222,9 C3.76683283,7.37374169 5.83050847,6.33311685 8,5.8777153 L7.93215022,3 C5.02683948,3.49867546 2.24489199,4.8293996 0,6.99401822"/><path id="Fill-8" fill="#00C0A5" d="M4,10.7405753 C4.49336779,11.3391466 5.36867233,12.4014286 5.86204011,13 C6.51654977,12.2057671 7.24124523,11.6148407 8,11.2253094 L7.93955949,8 C6.48810139,8.46860815 5.12001969,9.3815758 4,10.7405753"/><path id="Fill-10" fill="#00C0A5" d="M15.1861539,13 C15.6892916,12.4016002 16.4969627,11.2826606 17,10.6841414 C15.8796626,9.35168378 14.5157387,8.46011464 13.0670716,8 L13,11.2231908 C13.7758422,11.6126105 14.5169436,12.2040841 15.1861539,13"/><path id="Fill-12" fill="#00C0A5" d="M11.2266283,0 L9.77337167,0 C9.34807178,0 9,0.366050788 9,0.813446196 L9.03360761,2.36608555 L9.09616338,5.26226687 L9.14821057,7.67413484 L9.20640428,10.371439 L9.22454645,11.2072028 C9.22454645,11.6545982 9.43124814,12 9.85664717,12 L11.1708139,12 C11.5961138,12 11.7566174,11.6104844 11.7566174,11.1629847 L11.7752553,10.3701875 L11.8386041,7.67434342 L11.8953108,5.26174543 L11.9635174,2.36629413 L12,0.813446196 C12,0.366050788 11.6520274,0 11.2266283,0"/></g></g></g></g></g></g></g></g></svg>